<svg
        xmlns="http://www.w3.org/2000/svg"
        xmlns:xlink="http://www.w3.org/1999/xlink"
        width="431px" height="41px">
    <path fill-rule="evenodd"  fill="rgb(206, 231, 255)"
          d="M429.735,1.657 L371.162,1.657 C371.162,1.657 368.226,1.172 364.894,4.477 C362.392,6.956 335.931,32.922 335.931,32.922 C335.931,32.922 332.599,36.468 327.561,36.468 L261.45,36.468 L255.834,40.979 L0.2,40.979 L0.2,34.694 L260.871,34.694 L263.94,34.694 L327.561,34.694 L327.561,34.697 C328.537,34.682 331.821,34.424 334.820,31.733 C338.390,28.530 364.99,3.329 364.99,3.329 C364.99,3.329 366.719,0.488 371.123,0.488 C375.527,0.488 430.369,0.488 430.369,0.488 L429.735,1.657 Z"/>
</svg>